<svg width="59" height="43" viewBox="0 0 59 43" fill="none" xmlns="http://www.w3.org/2000/svg">
<path d="M39.3015 24.7591C43.1586 24.7591 48.7392 23.994 48.7392 19.5813C48.7507 19.2407 48.7186 18.9001 48.6436 18.5671L46.3466 8.97067C45.8163 6.85922 45.3508 5.90136 41.4968 4.04791C38.5061 2.57701 31.9913 0.148254 30.0643 0.148254C28.2699 0.148254 27.7488 2.37239 25.6091 2.37239C23.5495 2.37239 22.0202 0.711703 20.0932 0.711703C18.2433 0.711703 17.0378 1.9246 16.1066 4.4186C16.1066 4.4186 13.5137 11.4528 13.1807 12.4729C13.1278 12.6603 13.1049 12.8543 13.1129 13.0483C13.1129 15.7825 24.3049 24.7472 39.3015 24.7472M49.3312 21.3725C49.8646 23.8012 49.8646 24.0563 49.8646 24.3765C49.8646 28.5283 45.0116 30.8325 38.6325 30.8325C24.2155 30.8414 11.5867 22.7158 11.5867 17.3453C11.5858 16.5977 11.7443 15.8579 12.0522 15.1716C6.8663 15.4207 0.154175 16.3103 0.154175 22.01C0.154175 31.3455 23.1517 42.8517 41.3611 42.8517C55.3218 42.8517 58.8428 36.7783 58.8428 31.9831C58.8428 28.2109 55.4513 23.9287 49.3373 21.3725" fill="#EE0000"/>
</svg>
