<svg width="189" height="43" viewBox="0 0 189 43" fill="none" xmlns="http://www.w3.org/2000/svg">
<g clip-path="url(#clip0_3240_14262)">
<path d="M39.3015 24.7591C43.1586 24.7591 48.7392 23.994 48.7392 19.5813C48.7507 19.2407 48.7186 18.9001 48.6436 18.5671L46.3466 8.97067C45.8163 6.85922 45.3508 5.90136 41.4968 4.04791C38.5061 2.57701 31.9913 0.148254 30.0643 0.148254C28.2699 0.148254 27.7488 2.37239 25.6091 2.37239C23.5495 2.37239 22.0202 0.711703 20.0932 0.711703C18.2433 0.711703 17.0378 1.9246 16.1066 4.4186C16.1066 4.4186 13.5137 11.4528 13.1807 12.4729C13.1278 12.6603 13.1049 12.8543 13.1129 13.0483C13.1129 15.7825 24.3049 24.7472 39.3015 24.7472M49.3312 21.3725C49.8646 23.8012 49.8646 24.0563 49.8646 24.3765C49.8646 28.5283 45.0116 30.8325 38.6325 30.8325C24.2154 30.8414 11.5867 22.7158 11.5867 17.3453C11.5858 16.5977 11.7443 15.8579 12.0522 15.1716C6.8663 15.4207 0.154175 16.3103 0.154175 22.01C0.154175 31.3455 23.1517 42.8517 41.3611 42.8517C55.3218 42.8517 58.8428 36.7783 58.8428 31.9831C58.8428 28.2109 55.4513 23.9287 49.3373 21.3725" fill="#EE0000"/>
<path d="M49.3312 21.3725C49.8646 23.8012 49.8646 24.0562 49.8646 24.3765C49.8646 28.5282 45.0116 30.8325 38.6325 30.8325C24.2155 30.8414 11.5867 22.7158 11.5867 17.3453C11.5858 16.5977 11.7443 15.8579 12.0522 15.1716L13.1807 12.4848C13.129 12.6683 13.1061 12.8582 13.1129 13.0483C13.1129 15.7825 24.3049 24.7472 39.3015 24.7472C43.1586 24.7472 48.7392 23.9821 48.7392 19.5694C48.7507 19.2289 48.7186 18.8882 48.6436 18.5552L49.3312 21.3725Z" fill="black"/>
<path d="M178.745 27.52C178.745 31.046 180.95 32.76 184.97 32.76C186.208 32.7304 187.438 32.5632 188.636 32.2618V28.1724C187.871 28.4058 187.072 28.5219 186.268 28.5164C184.613 28.5164 183.999 28.0182 183.999 26.5206V20.2545H188.797V16.0434H183.999V10.7055L178.758 11.7968V16.0434H175.277V20.2545H178.745V27.52ZM162.404 27.6149C162.404 26.5236 163.542 25.9927 165.259 25.9927C166.309 25.9986 167.354 26.124 168.373 26.3664V28.4867C167.369 29.0143 166.24 29.283 165.096 29.2667C163.413 29.2667 162.404 28.6439 162.404 27.6149ZM164.008 32.8223C165.858 32.8223 167.35 32.4487 168.743 31.5442V32.5436H173.929V21.9685C173.929 17.9473 171.111 15.7409 166.409 15.7409C163.783 15.7409 161.187 16.334 158.393 17.5499L160.274 21.2627C162.284 20.4502 163.974 19.952 165.463 19.952C167.621 19.952 168.737 20.7616 168.737 22.4163V23.2259C167.467 22.9095 166.159 22.7521 164.846 22.7574C160.434 22.7574 157.777 24.5367 157.777 27.7187C157.777 30.6189 160.175 32.8312 164.001 32.8312M135.5 32.5525H141.078V23.9969H150.417V32.5436H156.01V10.7114H150.438V19.1009H141.099V10.7114H135.522L135.5 32.5525ZM114.269 24.2787C114.269 21.9063 116.215 20.0973 118.777 20.0973C120.11 20.0713 121.404 20.5286 122.403 21.3784V27.1463C121.919 27.586 121.35 27.9292 120.727 28.1562C120.105 28.3832 119.442 28.4895 118.777 28.4689C116.249 28.4689 114.269 26.66 114.269 24.2905M122.474 32.5554H127.663V9.62012L122.421 10.7114V16.9183C121.087 16.1907 119.577 15.8143 118.043 15.8269C113.052 15.8269 109.127 19.5368 109.127 24.2787C109.112 25.3913 109.329 26.4955 109.763 27.5269C110.197 28.5582 110.84 29.4961 111.656 30.2856C112.471 31.0752 113.441 31.7006 114.51 32.1255C115.58 32.5503 116.726 32.766 117.883 32.76C119.537 32.7676 121.15 32.2657 122.486 31.3277L122.474 32.5554ZM98.6624 19.8689C100.315 19.8689 101.709 20.898 102.26 22.4875H95.1074C95.6254 20.8476 96.9234 19.8689 98.6624 19.8689ZM89.8228 24.3172C89.8228 29.1214 93.9081 32.8638 99.1587 32.8638C102.045 32.8638 104.154 32.1136 106.327 30.3669L102.856 27.4014C102.045 28.2139 100.845 28.6498 99.4208 28.6498C98.5251 28.6741 97.6427 28.4369 96.8898 27.9695C96.137 27.5021 95.5489 26.8264 95.203 26.0313H107.428V24.7769C107.428 19.5368 103.765 15.7647 98.7703 15.7647C97.5961 15.7476 96.4303 15.9566 95.3413 16.3792C94.2524 16.8018 93.2622 17.4296 92.4292 18.2256C91.5961 19.0216 90.9369 19.9698 90.4904 21.0144C90.0439 22.059 89.819 23.1789 89.829 24.3083M80.7798 15.2961C82.6297 15.2961 83.6657 16.4171 83.6657 17.7605C83.6657 19.1038 82.6297 20.2248 80.7798 20.2248H75.264V15.2961H80.7798ZM69.6803 32.5436H75.2578V24.59H79.5034L83.7859 32.5436H90.0294L85.0346 23.8101C86.304 23.3136 87.3898 22.4631 88.1525 21.3681C88.9151 20.273 89.3197 18.9836 89.3141 17.6656C89.3141 13.7363 86.1045 10.7114 81.2978 10.7114H69.6803V32.5436Z" fill="white"/>
<path d="M178.745 27.52C178.745 31.046 180.95 32.76 184.97 32.76C186.208 32.7304 187.438 32.5632 188.636 32.2618V28.1724C187.871 28.4058 187.072 28.5219 186.268 28.5164C184.613 28.5164 183.999 28.0182 183.999 26.5206V20.2545H188.797V16.0434H183.999V10.7055L178.758 11.7968V16.0434H175.277V20.2545H178.745V27.52ZM162.404 27.6149C162.404 26.5236 163.542 25.9927 165.259 25.9927C166.309 25.9986 167.354 26.124 168.373 26.3664V28.4867C167.369 29.0143 166.24 29.283 165.096 29.2667C163.413 29.2667 162.404 28.6439 162.404 27.6149ZM164.008 32.8223C165.858 32.8223 167.35 32.4487 168.743 31.5442V32.5436H173.929V21.9685C173.929 17.9473 171.111 15.7409 166.409 15.7409C163.783 15.7409 161.187 16.334 158.393 17.5499L160.274 21.2627C162.284 20.4502 163.974 19.952 165.463 19.952C167.621 19.952 168.737 20.7616 168.737 22.4163V23.2259C167.467 22.9095 166.159 22.7521 164.846 22.7574C160.434 22.7574 157.777 24.5367 157.777 27.7187C157.777 30.6189 160.175 32.8312 164.001 32.8312M135.5 32.5525H141.078V23.9969H150.417V32.5436H156.01V10.7114H150.438V19.1009H141.099V10.7114H135.522L135.5 32.5525ZM114.269 24.2787C114.269 21.9063 116.215 20.0973 118.777 20.0973C120.11 20.0713 121.404 20.5286 122.403 21.3784V27.1463C121.919 27.586 121.35 27.9292 120.727 28.1562C120.105 28.3832 119.442 28.4895 118.777 28.4689C116.249 28.4689 114.269 26.66 114.269 24.2905M122.474 32.5554H127.663V9.62012L122.421 10.7114V16.9183C121.087 16.1907 119.577 15.8143 118.043 15.8269C113.052 15.8269 109.127 19.5368 109.127 24.2787C109.112 25.3913 109.329 26.4955 109.763 27.5269C110.197 28.5582 110.84 29.4961 111.656 30.2856C112.471 31.0752 113.441 31.7006 114.51 32.1255C115.58 32.5503 116.726 32.766 117.883 32.76C119.537 32.7676 121.15 32.2657 122.486 31.3277L122.474 32.5554ZM98.6624 19.8689C100.315 19.8689 101.709 20.898 102.26 22.4875H95.1074C95.6254 20.8476 96.9234 19.8689 98.6624 19.8689ZM89.8228 24.3172C89.8228 29.1214 93.9081 32.8638 99.1587 32.8638C102.045 32.8638 104.154 32.1136 106.327 30.3669L102.856 27.4014C102.045 28.2139 100.845 28.6498 99.4208 28.6498C98.5251 28.6741 97.6427 28.4369 96.8898 27.9695C96.137 27.5021 95.5489 26.8264 95.203 26.0313H107.428V24.7769C107.428 19.5368 103.765 15.7647 98.7703 15.7647C97.5961 15.7476 96.4303 15.9566 95.3413 16.3792C94.2524 16.8018 93.2622 17.4296 92.4292 18.2256C91.5961 19.0216 90.9369 19.9698 90.4904 21.0144C90.0439 22.059 89.819 23.1789 89.829 24.3083M80.7798 15.2961C82.6297 15.2961 83.6657 16.4171 83.6657 17.7605C83.6657 19.1038 82.6297 20.2248 80.7798 20.2248H75.264V15.2961H80.7798ZM69.6803 32.5436H75.2578V24.59H79.5034L83.7859 32.5436H90.0294L85.0346 23.8101C86.304 23.3136 87.3898 22.4631 88.1525 21.3681C88.9151 20.273 89.3197 18.9836 89.3141 17.6656C89.3141 13.7363 86.1045 10.7114 81.2978 10.7114H69.6803V32.5436Z" fill="white"/>
</g>
<defs>
<clipPath id="clip0_3240_14262">
<rect width="189" height="43" fill="white"/>
</clipPath>
</defs>
</svg>
